<?xml version="1.0" encoding="UTF-8"?>
<svg version="1.1" xmlns="http://www.w3.org/2000/svg" viewBox="0 0 671 665" width="671" height="665">
<path d="M0 0 C221.43 0 442.86 0 671 0 C671 219.45 671 438.9 671 665 C449.57 665 228.14 665 0 665 C0 445.55 0 226.1 0 0 Z " fill="#FEFEFE" transform="translate(0,0)"/>
<path d="M0 0 C2.27076842 -0.02699725 4.54162821 -0.04639453 6.8125 -0.0625 C8.07707031 -0.07410156 9.34164062 -0.08570313 10.64453125 -0.09765625 C14 0 14 0 17 1 C17.495 1.99 17.495 1.99 18 3 C22.46005374 5.73236674 22.46005374 5.73236674 27.25 7.75 C30.41587514 10.01133939 31.25328434 13.35492131 32 17 C32.23348721 21.34683631 32.17895903 25.65195832 32 30 C31.34 30 30.68 30 30 30 C29.90074219 30.5775 29.80148437 31.155 29.69921875 31.75 C27.76501048 37.97404449 21.55813057 42.96829242 16 46 C15.01 46 14.02 46 13 46 C13.33 46.66 13.66 47.32 14 48 C16.54876234 48.61561418 16.54876234 48.61561418 19.5 49 C22.53125 49.4375 22.53125 49.4375 25 50 C25.33 50.66 25.66 51.32 26 52 C27.71665519 52.94546662 27.71665519 52.94546662 29.75 53.8125 C33.56778343 55.65272654 36.27809886 57.68268299 39 61 C39 61.99 39 62.98 39 64 C40.485 64.495 40.485 64.495 42 65 C43.73907051 68.47814102 43.18463639 72.41848527 43.1875 76.25 C43.19974609 77.09691406 43.21199219 77.94382812 43.22460938 78.81640625 C43.23581454 83.61968551 42.86512695 87.48830951 41 92 C40.34 92 39.68 92 39 92 C38.7215625 93.051875 38.7215625 93.051875 38.4375 94.125 C36.71241015 97.57517969 34.62794479 99.21275876 31.65234375 101.5859375 C29.86572204 102.97311313 29.86572204 102.97311313 28.625 105.1875 C25.15803891 109.05449506 19.75249838 109.85894473 14.75631714 110.26107788 C10.9485366 110.34607954 7.14768087 110.33815261 3.33984375 110.29296875 C1.94023599 110.28736211 0.54062227 110.28309707 -0.85899353 110.28010559 C-4.51362838 110.26874061 -8.16789622 110.23934742 -11.8223877 110.20599365 C-15.56318195 110.17511085 -19.30403644 110.16156165 -23.04492188 110.14648438 C-30.36344719 110.11446796 -37.68167185 110.06337521 -45 110 C-45 109.01 -45 108.02 -45 107 C-39.72 106.34 -34.44 105.68 -29 105 C-27.15882776 100.39706941 -26.73601914 98.15633545 -26.68115234 93.3737793 C-26.67110672 92.72931351 -26.6610611 92.08484772 -26.65071106 91.42085266 C-26.61999064 89.30531652 -26.60287552 87.18990628 -26.5859375 85.07421875 C-26.56721683 83.60161769 -26.54764274 82.12902725 -26.5272522 80.65644836 C-26.47601977 76.79155758 -26.43634672 72.92663205 -26.39910889 69.06158447 C-26.3590133 65.11323515 -26.30794636 61.16502924 -26.2578125 57.21679688 C-26.16115856 49.47796314 -26.07672037 41.73905975 -26 34 C-22.53058454 34.45822468 -19.32604951 34.89131683 -16 36 C-16 39.96 -16 43.92 -16 48 C0.07824166 47.62684642 0.07824166 47.62684642 15 42 C16.19838209 39.67145537 16.19838209 39.67145537 17 37 C17.66666667 35.33333333 18.33333333 33.66666667 19 32 C19.66 32 20.32 32 21 32 C20.85667764 20.34951398 20.85667764 20.34951398 16 10 C16 9.34 16 8.68 16 8 C13.20330895 6.52839263 10.443226 5.40889368 7.4375 4.4375 C6.67308594 4.18871094 5.90867187 3.93992187 5.12109375 3.68359375 C4.42113281 3.45800781 3.72117187 3.23242188 3 3 C2.01 2.67 1.02 2.34 0 2 C0 1.34 0 0.68 0 0 Z " fill="#FAFAFA" transform="translate(388,260)"/>
<path d="M0 0 C2.27076842 -0.02699725 4.54162821 -0.04639453 6.8125 -0.0625 C8.07707031 -0.07410156 9.34164062 -0.08570313 10.64453125 -0.09765625 C14 0 14 0 17 1 C17.495 1.99 17.495 1.99 18 3 C22.46005374 5.73236674 22.46005374 5.73236674 27.25 7.75 C30.41587514 10.01133939 31.25328434 13.35492131 32 17 C32.23348721 21.34683631 32.17895903 25.65195832 32 30 C31.34 30 30.68 30 30 30 C29.90074219 30.5775 29.80148437 31.155 29.69921875 31.75 C27.76501048 37.97404449 21.55813057 42.96829242 16 46 C15.01 46 14.02 46 13 46 C13.33 46.66 13.66 47.32 14 48 C16.54876234 48.61561418 16.54876234 48.61561418 19.5 49 C22.53125 49.4375 22.53125 49.4375 25 50 C25.33 50.66 25.66 51.32 26 52 C27.71665519 52.94546662 27.71665519 52.94546662 29.75 53.8125 C33.56778343 55.65272654 36.27809886 57.68268299 39 61 C39 61.99 39 62.98 39 64 C40.485 64.495 40.485 64.495 42 65 C43.73907051 68.47814102 43.18463639 72.41848527 43.1875 76.25 C43.19974609 77.09691406 43.21199219 77.94382812 43.22460938 78.81640625 C43.23581454 83.61968551 42.86512695 87.48830951 41 92 C40.34 92 39.68 92 39 92 C38.7215625 93.051875 38.7215625 93.051875 38.4375 94.125 C36.71241015 97.57517969 34.62794479 99.21275876 31.65234375 101.5859375 C29.86572204 102.97311313 29.86572204 102.97311313 28.625 105.1875 C25.15803891 109.05449506 19.75249838 109.85894473 14.75631714 110.26107788 C10.9485366 110.34607954 7.14768087 110.33815261 3.33984375 110.29296875 C1.94023599 110.28736211 0.54062227 110.28309707 -0.85899353 110.28010559 C-4.51362838 110.26874061 -8.16789622 110.23934742 -11.8223877 110.20599365 C-15.56318195 110.17511085 -19.30403644 110.16156165 -23.04492188 110.14648438 C-30.36344719 110.11446796 -37.68167185 110.06337521 -45 110 C-45 109.01 -45 108.02 -45 107 C-39.72 106.34 -34.44 105.68 -29 105 C-27.15882776 100.39706941 -26.73601914 98.15633545 -26.68115234 93.3737793 C-26.67110672 92.72931351 -26.6610611 92.08484772 -26.65071106 91.42085266 C-26.61999064 89.30531652 -26.60287552 87.18990628 -26.5859375 85.07421875 C-26.56721683 83.60161769 -26.54764274 82.12902725 -26.5272522 80.65644836 C-26.47601977 76.79155758 -26.43634672 72.92663205 -26.39910889 69.06158447 C-26.3590133 65.11323515 -26.30794636 61.16502924 -26.2578125 57.21679688 C-26.16115856 49.47796314 -26.07672037 41.73905975 -26 34 C-22.53058454 34.45822468 -19.32604951 34.89131683 -16 36 C-16 39.96 -16 43.92 -16 48 C0.07824166 47.62684642 0.07824166 47.62684642 15 42 C16.19838209 39.67145537 16.19838209 39.67145537 17 37 C17.66666667 35.33333333 18.33333333 33.66666667 19 32 C19.66 32 20.32 32 21 32 C20.85667764 20.34951398 20.85667764 20.34951398 16 10 C16 9.34 16 8.68 16 8 C13.20330895 6.52839263 10.443226 5.40889368 7.4375 4.4375 C6.67308594 4.18871094 5.90867187 3.93992187 5.12109375 3.68359375 C4.42113281 3.45800781 3.72117187 3.23242188 3 3 C2.01 2.67 1.02 2.34 0 2 C0 1.34 0 0.68 0 0 Z M-16 53 C-16.0760407 59.76262208 -16.12859585 66.52513398 -16.16479492 73.28808594 C-16.17988495 75.5889091 -16.20035927 77.88970349 -16.22631836 80.19042969 C-16.26269147 83.49681702 -16.27972432 86.80282416 -16.29296875 90.109375 C-16.30845261 91.13867126 -16.32393646 92.16796753 -16.33988953 93.22845459 C-16.34011612 94.18914856 -16.34034271 95.14984253 -16.34057617 96.13964844 C-16.34723801 96.98348083 -16.35389984 97.82731323 -16.36076355 98.69671631 C-15.91398594 101.54915411 -14.94507489 102.89490278 -13 105 C-4.65069329 109.00817945 8.67891309 108.57931803 17.421875 105.984375 C19.77023928 104.80307661 21.85580531 103.51300318 24 102 C24.94875 101.608125 25.8975 101.21625 26.875 100.8125 C31.65960652 96.73151209 32.9094777 90.94635412 33.45703125 84.87890625 C33.87542225 77.14724631 33.78184885 70.92606806 28.625 64.71875 C28.08875 64.1515625 27.5525 63.584375 27 63 C26.278125 62.0925 25.55625 61.185 24.8125 60.25 C16.13214396 53.30571517 7.64448907 52.30794243 -3.1875 52.6875 C-4.42564453 52.71005859 -5.66378906 52.73261719 -6.93945312 52.75585938 C-9.96094453 52.81418932 -12.97979521 52.89598744 -16 53 Z " fill="#535150" transform="translate(388,260)"/>
<path d="M0 0 C2.22549221 4.51663316 2.24945751 8.9349943 2.125 13.875 C2.11597656 14.56335938 2.10695313 15.25171875 2.09765625 15.9609375 C2.07432513 17.64077838 2.03846326 19.32043746 2 21 C1.01 20.67 0.02 20.34 -1 20 C-1.6328125 17.5234375 -1.6328125 17.5234375 -2.125 14.375 C-3.48515906 8.26519459 -5.64503143 5.77444563 -10.74609375 2.3046875 C-11.86177734 1.65886719 -11.86177734 1.65886719 -13 1 C-13.59425781 0.61585938 -14.18851562 0.23171875 -14.80078125 -0.1640625 C-18.07028172 -1.40682112 -21.30193695 -1.29776262 -24.75 -1.25 C-25.46792725 -1.24033203 -26.18585449 -1.23066406 -26.92553711 -1.22070312 C-34.17608975 -1.05593656 -39.46508573 -0.8793859 -45 4.25 C-48.84576076 9.06159108 -48.75826943 13.6875286 -48.4140625 19.66015625 C-47.45104719 27.4278741 -45.34902803 31.47734184 -39.20703125 36.45703125 C-35.95140888 38.73308583 -32.62551035 40.38146859 -29 42 C-29 42.66 -29 43.32 -29 44 C-28.195625 44.226875 -27.39125 44.45375 -26.5625 44.6875 C-22.91799198 46.03021348 -19.79460271 47.70977661 -16.44140625 49.64453125 C-13.90419247 51.05319234 -11.31650762 52.27261353 -8.6875 53.5 C-4.74438826 55.43493254 -2.49408968 57.30874727 0 61 C0.99 61.66 1.98 62.32 3 63 C2.67 65.31 2.34 67.62 2 70 C1.01 70 0.02 70 -1 70 C-1.33 71.65 -1.66 73.3 -2 75 C-2.99 75 -3.98 75 -5 75 C-5.391875 74.319375 -5.78375 73.63875 -6.1875 72.9375 C-10.43784297 66.04901312 -17.93341713 60.85590858 -25.1875 57.5 C-51.13124596 44.68748664 -51.13124596 44.68748664 -57.140625 32.73046875 C-59.30661166 25.84853841 -59.31398626 15.45144159 -56.2421875 8.78125 C-52.74397823 3.76494992 -48.35431441 -0.33913982 -42.4375 -2 C-41.633125 -2 -40.82875 -2 -40 -2 C-40 -2.66 -40 -3.32 -40 -4 C-27.82355166 -6.4473257 -10.54642672 -7.69942868 0 0 Z " fill="#4A4847" transform="translate(346,179)"/>
<path d="M0 0 C3.46941546 0.45822468 6.67395049 0.89131683 10 2 C9.67 23.45 9.34 44.9 9 67 C9.66 67 10.32 67 11 67 C12.34919532 68.65385233 13.68133728 70.321702 15 72 C15.99 72.66 16.98 73.32 18 74 C17 75 17 75 13.67358398 75.11352539 C12.19774444 75.11336629 10.72189931 75.10767314 9.24609375 75.09765625 C8.47064713 75.0962413 7.6952005 75.09482635 6.89625549 75.09336853 C4.40996506 75.08775345 1.9237634 75.07519846 -0.5625 75.0625 C-2.24413933 75.05748694 -3.92578006 75.0529237 -5.60742188 75.04882812 C-9.73831566 75.03777913 -13.86914276 75.02050445 -18 75 C-18 74.67 -18 74.34 -18 74 C-17.18015625 73.87882812 -16.3603125 73.75765625 -15.515625 73.6328125 C-14.43796875 73.46523438 -13.3603125 73.29765625 -12.25 73.125 C-11.18265625 72.96257812 -10.1153125 72.80015625 -9.015625 72.6328125 C-6.26522675 72.05565639 -4.28957101 71.61553842 -2 70 C-0.77578268 66.55141691 -0.84316577 63.11698042 -0.79467773 59.48730469 C-0.78477814 58.84298492 -0.77487854 58.19866516 -0.76467896 57.53482056 C-0.73319571 55.41387555 -0.70835897 53.29290819 -0.68359375 51.171875 C-0.66301282 49.69784985 -0.64201605 48.22383045 -0.62062073 46.74981689 C-0.5655176 42.87667509 -0.51605666 39.00348105 -0.46777344 35.13024902 C-0.41747237 31.17532726 -0.36183129 27.22048102 -0.30664062 23.265625 C-0.19920295 15.51048068 -0.09772626 7.75527342 0 0 Z " fill="#42403F" transform="translate(362,294)"/>
<path d="M0 0 C1.32 0 2.64 0 4 0 C3.75 2.3125 3.75 2.3125 3 5 C1.68212715 6.02028865 0.34789347 7.01971384 -1 8 C-1.69040574 9.65697379 -2.3530635 11.3255761 -3 13 C-4.5128847 15.45016007 -6.07249021 17.85626315 -8 20 C-8.66 20 -9.32 20 -10 20 C-10.495 21.485 -10.495 21.485 -11 23 C-12.175625 24.1446875 -12.175625 24.1446875 -13.375 25.3125 C-16.12171764 27.84428451 -16.12171764 27.84428451 -17.5 31.0625 C-19.22643855 34.44344216 -21.05459298 35.64710926 -24 38 C-25.50511644 39.68860237 -26.96254662 41.42065849 -28.375 43.1875 C-29.1484375 44.15300781 -29.921875 45.11851562 -30.71875 46.11328125 C-31.4715625 47.06589844 -32.224375 48.01851562 -33 49 C-33.6703125 49.83917969 -34.340625 50.67835938 -35.03125 51.54296875 C-37.48664812 54.64863121 -39.79367983 57.65139005 -41.8125 61.0625 C-42.204375 61.701875 -42.59625 62.34125 -43 63 C-43.66 63 -44.32 63 -45 63 C-45.28617187 63.57234375 -45.57234375 64.1446875 -45.8671875 64.734375 C-47.578125 68.15625 -49.2890625 71.578125 -51 75 C-51.66 75 -52.32 75 -53 75 C-53.66 76.65 -54.32 78.3 -55 80 C-55.66 80 -56.32 80 -57 80 C-57 80.66 -57 81.32 -57 82 C-57.66 82 -58.32 82 -59 82 C-59.3403125 83.0828125 -59.3403125 83.0828125 -59.6875 84.1875 C-60.95592961 86.90556345 -62.27350003 88.38937764 -64.43359375 90.4140625 C-68.43114915 94.46146273 -72.57949241 99.13406364 -75.11328125 104.24609375 C-76 106 -76 106 -78 107 C-78.268125 107.763125 -78.53625 108.52625 -78.8125 109.3125 C-80 112 -80 112 -82.1875 113.671875 C-85.82479896 116.68275025 -88.38509774 120.16073177 -91.1875 123.9375 C-92.33574601 125.4623838 -93.48418568 126.98712178 -94.6328125 128.51171875 C-95.1990332 129.26759277 -95.76525391 130.0234668 -96.34863281 130.80224609 C-98.72903258 133.97024709 -101.1432272 137.1116463 -103.5625 140.25 C-104.32691406 141.24515625 -105.09132813 142.2403125 -105.87890625 143.265625 C-107.29269329 145.08818656 -108.72777806 146.89442492 -110.18359375 148.68359375 C-112.09693836 150.98515988 -112.09693836 150.98515988 -113.5 153.8125 C-113.995 154.534375 -114.49 155.25625 -115 156 C-116.32 156 -117.64 156 -119 156 C-118.41111199 152.99556926 -117.56711901 151.12462278 -115.63671875 148.7578125 C-115.16169922 148.16613281 -114.68667969 147.57445312 -114.19726562 146.96484375 C-113.44993164 146.05412109 -113.44993164 146.05412109 -112.6875 145.125 C-109.96743266 141.77445347 -107.31694217 138.4860184 -104.95703125 134.8671875 C-102.89990382 131.8533521 -100.59765678 129.55376396 -98 127 C-96.40441137 125.02629709 -94.84338065 123.02430499 -93.3125 121 C-92.43236265 119.84239394 -91.55215228 118.6848434 -90.671875 117.52734375 C-90.22779297 116.94065918 -89.78371094 116.35397461 -89.32617188 115.74951172 C-87.25043425 113.01115829 -85.1573815 110.28622101 -83.0625 107.5625 C-82.65298096 107.02947266 -82.24346191 106.49644531 -81.8215332 105.94726562 C-78.74059523 101.94402391 -75.62590384 97.96819025 -72.5 94 C-68.77194763 89.26515462 -65.05890952 84.51929941 -61.375 79.75 C-60.94896484 79.20085937 -60.52292969 78.65171875 -60.08398438 78.0859375 C-57.83979411 75.17363844 -57.83979411 75.17363844 -56 72 C-55.34 72 -54.68 72 -54 72 C-53.64615234 70.93845703 -53.64615234 70.93845703 -53.28515625 69.85546875 C-51.77339735 66.49651507 -49.82026492 64.11597783 -47.4375 61.3125 C-44.40830054 57.86183949 -44.40830054 57.86183949 -42 54 C-41.34 54 -40.68 54 -40 54 C-39.76796875 53.29359375 -39.5359375 52.5871875 -39.296875 51.859375 C-37.7435358 48.43454279 -35.72170905 46.08123037 -33.25 43.25 C-30.26288832 39.77276121 -27.41164639 36.30553168 -24.9375 32.4375 C-22.07855913 27.97241257 -18.76447886 23.98096616 -15.375 19.91015625 C-12.13554086 15.94075319 -9.09049655 11.84544343 -6.04296875 7.7265625 C-5.36878906 6.82679688 -4.69460938 5.92703125 -4 5 C-3.00419922 3.58847656 -3.00419922 3.58847656 -1.98828125 2.1484375 C-1.33214844 1.43945312 -0.67601562 0.73046875 0 0 Z " fill="#3A3939" transform="translate(402,202)"/>
<path d="M0 0 C3.09375 -0.020625 6.1875 -0.04125 9.375 -0.0625 C10.34872559 -0.071604 11.32245117 -0.08070801 12.32568359 -0.09008789 C13.47544678 -0.09383423 13.47544678 -0.09383423 14.6484375 -0.09765625 C15.43395996 -0.10289307 16.21948242 -0.10812988 17.02880859 -0.11352539 C19 0 19 0 21 1 C21 1.66 21 2.32 21 3 C21.78375 3.268125 22.5675 3.53625 23.375 3.8125 C26 5 26 5 28 8 C28.1953125 10.26171875 28.1953125 10.26171875 28.125 12.6875 C28.10695313 13.49574219 28.08890625 14.30398438 28.0703125 15.13671875 C28.04710937 15.75160156 28.02390625 16.36648438 28 17 C27.34 17 26.68 17 26 17 C25.814375 17.598125 25.62875 18.19625 25.4375 18.8125 C23.35686449 21.97868448 20.52199952 22.97193669 17 24 C14.00238957 24.33081508 11.07314575 24.28731505 8.0625 24.1875 C4.0715625 24.0946875 4.0715625 24.0946875 0 24 C0 16.08 0 8.16 0 0 Z " fill="#5B5A59" transform="translate(472,425)"/>
<path d="M0 0 C4.3003125 -0.061875 4.3003125 -0.061875 8.6875 -0.125 C9.58170654 -0.14320801 10.47591309 -0.16141602 11.3972168 -0.18017578 C15.70458673 -0.21012497 19.10247214 -0.07560656 23 2 C24 3 24 3 24.0625 6.4375 C24.041875 7.613125 24.02125 8.78875 24 10 C24 12.68965785 24.62401225 15.20939197 25.171875 17.83203125 C25 20 25 20 23.6875 22.7421875 C19.52564448 26.23863008 15.49225952 25.53763504 10.25 25.3125 C6.8675 25.209375 3.485 25.10625 0 25 C0 16.75 0 8.5 0 0 Z " fill="#706F6E" transform="translate(193,425)"/>
<path d="M0 0 C3.83625 -0.0309375 3.83625 -0.0309375 7.75 -0.0625 C8.94834473 -0.07615601 8.94834473 -0.07615601 10.17089844 -0.09008789 C13.62893138 -0.10358903 16.678497 0.06623116 20 1 C20 1.66 20 2.32 20 3 C20.78375 3.2475 21.5675 3.495 22.375 3.75 C25 5 25 5 26.3125 6.625 C27.32932398 10.13766465 27.12169983 13.34900507 27 17 C26.34 17 25.68 17 25 17 C24.773125 17.598125 24.54625 18.19625 24.3125 18.8125 C22.54202111 21.76329815 21.14775282 22.55727996 18 24 C14.88275609 24.35564407 11.8195721 24.28316379 8.6875 24.1875 C5.820625 24.125625 2.95375 24.06375 0 24 C0 16.08 0 8.16 0 0 Z " fill="#535151" transform="translate(629,425)"/>
<path d="M0 0 C2.660625 -0.0825 5.32125 -0.165 8.0625 -0.25 C8.8862915 -0.28641602 9.71008301 -0.32283203 10.55883789 -0.36035156 C16.18148077 -0.44383949 19.34362325 0.85864623 24 4 C23.91621094 4.71027344 23.83242188 5.42054688 23.74609375 6.15234375 C23.64425781 7.07144531 23.54242187 7.99054688 23.4375 8.9375 C23.33308594 9.85402344 23.22867188 10.77054687 23.12109375 11.71484375 C23.08113281 12.46894531 23.04117188 13.22304688 23 14 C23.33 14.33 23.66 14.66 24 15 C24.04080783 16.99958364 24.04254356 19.00045254 24 21 C23.360625 21.28875 22.72125 21.5775 22.0625 21.875 C19.84793921 22.82823451 19.84793921 22.82823451 19 25 C12.73 25 6.46 25 0 25 C0 16.75 0 8.5 0 0 Z " fill="#6B6A69" transform="translate(560,425)"/>
<path d="M0 0 C2.536875 -0.04125 5.07375 -0.0825 7.6875 -0.125 C8.47729248 -0.14320801 9.26708496 -0.16141602 10.08081055 -0.18017578 C14.16967393 -0.21222908 17.40505047 -0.01423888 21 2 C23.08940868 5.13411302 23.27364412 5.97450472 23.25 9.5625 C23.25515625 10.34753906 23.2603125 11.13257813 23.265625 11.94140625 C23 14 23 14 21 16 C20.97624074 17.9931567 20.97624074 17.9931567 21.375 20.125 C21.58125 21.40375 21.7875 22.6825 22 24 C19.1875 24.3125 19.1875 24.3125 16 24 C14.98133771 22.34467377 13.98189187 20.67739862 13 19 C9.9042893 18.10792821 9.9042893 18.10792821 7 18 C7 19.98 7 21.96 7 24 C4.69 24 2.38 24 0 24 C0 16.08 0 8.16 0 0 Z " fill="#5B5958" transform="translate(145,425)"/>
<path d="M0 0 C2.54283234 -0.10871967 5.08095088 -0.18762401 7.625 -0.25 C8.33785156 -0.28351563 9.05070312 -0.31703125 9.78515625 -0.3515625 C14.99105002 -0.44708349 17.86549155 0.56517759 22 4 C23.52491998 7.04983996 23.23562548 9.6423369 23 13 C21.4375 14.6875 21.4375 14.6875 20 16 C20.28774151 18.97332891 21.60076591 21.38809637 23 24 C19.29706315 24.33663062 17.60465619 24.47736015 14.625 22.125 C13 20 13 20 13 18 C11.02 18 9.04 18 7 18 C7 20.31 7 22.62 7 25 C5.00045254 25.04254356 2.99958364 25.04080783 1 25 C0 24 0 24 -0.11352539 21.68334961 C-0.10828857 20.68311768 -0.10305176 19.68288574 -0.09765625 18.65234375 C-0.09443359 17.57275391 -0.09121094 16.49316406 -0.08789062 15.38085938 C-0.07951172 14.24455078 -0.07113281 13.10824219 -0.0625 11.9375 C-0.05798828 10.79732422 -0.05347656 9.65714844 -0.04882812 8.48242188 C-0.03699747 5.65489649 -0.0205141 2.8274736 0 0 Z " fill="#5A5857" transform="translate(257,425)"/>
<path d="M0 0 C1.98 0 3.96 0 6 0 C8.1171875 2.3359375 8.1171875 2.3359375 9.875 5.375 C10.47054688 6.37273437 11.06609375 7.37046875 11.6796875 8.3984375 C13 11 13 11 13 13 C18.10461258 11.14985658 19.56104335 6.87561202 22.0234375 2.3359375 C22.67570312 1.56507813 23.32796875 0.79421875 24 0 C25.98 0 27.96 0 30 0 C30 7.92 30 15.84 30 24 C28.02 24 26.04 24 24 24 C24 20.04 24 16.08 24 12 C20.76743757 13.61628121 20.32663296 16.76993715 19 20 C18 21 18 21 15.75 21.5 C12.45720244 20.90130953 12.09816436 20.24876131 10.1875 17.625 C8 14.35384615 8 14.35384615 8 12 C7.34 12 6.68 12 6 12 C6 16.29 6 20.58 6 25 C4.02 25 2.04 25 0 25 C0 16.75 0 8.5 0 0 Z " fill="#565554" transform="translate(353,425)"/>
<path d="M0 0 C6.93 0 13.86 0 21 0 C21 1.65 21 3.3 21 5 C16.38 5 11.76 5 7 5 C7 6.32 7 7.64 7 9 C10.96 9 14.92 9 19 9 C19 10.98 19 12.96 19 15 C15.37 15 11.74 15 8 15 C8 16.32 8 17.64 8 19 C12.62 19 17.24 19 22 19 C22 20.65 22 22.3 22 24 C21 25 21 25 18.95874023 25.11352539 C18.08419189 25.10828857 17.20964355 25.10305176 16.30859375 25.09765625 C15.45837646 25.09515869 14.60815918 25.09266113 13.73217773 25.09008789 C12.64493408 25.08098389 11.55769043 25.07187988 10.4375 25.0625 C6.993125 25.041875 3.54875 25.02125 0 25 C0 16.75 0 8.5 0 0 Z " fill="#696766" transform="translate(227,425)"/>
<path d="M0 0 C5 0 5 0 6.87890625 1.35546875 C7.43449219 1.96003906 7.99007812 2.56460937 8.5625 3.1875 C9.15546875 3.82300781 9.7484375 4.45851563 10.359375 5.11328125 C12.30884362 7.35517016 14.15265649 9.67371558 16 12 C16.66 12.33 17.32 12.66 18 13 C18 8.71 18 4.42 18 0 C20.31 0 22.62 0 25 0 C25 7.92 25 15.84 25 24 C19 24 19 24 16.2265625 21.6640625 C15.34210836 20.66608141 14.47514473 19.65236523 13.625 18.625 C13.17511719 18.11710937 12.72523438 17.60921875 12.26171875 17.0859375 C9 13.31860277 9 13.31860277 9 11 C8.01 11 7.02 11 6 11 C6 15.29 6 19.58 6 24 C4.02 24 2.04 24 0 24 C0 16.08 0 8.16 0 0 Z " fill="#565453" transform="translate(509,425)"/>
<path d="M0 0 C5 0 5 0 7.82421875 2.58984375 C8.79274544 3.6935137 9.74683862 4.80998615 10.6875 5.9375 C13.90501916 9.99676035 13.90501916 9.99676035 18 13 C18 8.71 18 4.42 18 0 C19.98 0 21.96 0 24 0 C24 7.92 24 15.84 24 24 C18 24 18 24 16.05859375 22.390625 C15.25615234 21.33101563 15.25615234 21.33101563 14.4375 20.25 C11.74708152 16.76600484 9.62959747 14.90367797 6 12 C6 16.29 6 20.58 6 25 C4.02 25 2.04 25 0 25 C0 16.75 0 8.5 0 0 Z " fill="#535150" transform="translate(76,425)"/>
<path d="M0 0 C1.134375 0.020625 2.26875 0.04125 3.4375 0.0625 C4.44784498 1.80654788 5.44542422 3.55799561 6.4375 5.3125 C6.994375 6.28703125 7.55125 7.2615625 8.125 8.265625 C9.4375 11.0625 9.4375 11.0625 9.4375 15.0625 C10.0975 15.0625 10.7575 15.0625 11.4375 15.0625 C14.4375 20.6875 14.4375 20.6875 14.4375 24.0625 C12.1275 24.0625 9.8175 24.0625 7.4375 24.0625 C7.23382813 23.41796875 7.03015625 22.7734375 6.8203125 22.109375 C5.5707065 19.75096128 5.5707065 19.75096128 2.6171875 19.453125 C1.52664063 19.40671875 0.43609375 19.3603125 -0.6875 19.3125 C-1.78320312 19.25578125 -2.87890625 19.1990625 -4.0078125 19.140625 C-4.85085938 19.11484375 -5.69390625 19.0890625 -6.5625 19.0625 C-7.5525 21.5375 -7.5525 21.5375 -8.5625 24.0625 C-10.2125 24.0625 -11.8625 24.0625 -13.5625 24.0625 C-13.06881757 18.18459351 -11.29602993 13.87738375 -8.5625 8.6875 C-8.19382812 7.96433594 -7.82515625 7.24117188 -7.4453125 6.49609375 C-4.14322406 0.07268814 -4.14322406 0.07268814 0 0 Z " fill="#5A5958" transform="translate(405.5625,424.9375)"/>
<path d="M0 0 C3.1875 -0.5 3.1875 -0.5 7 0 C12.54521042 5.22834125 15.32848186 15.00447828 18 22 C18 22.66 18 23.32 18 24 C15.69 24 13.38 24 11 24 C10.67 22.68 10.34 21.36 10 20 C5.71 20 1.42 20 -3 20 C-3.66 21.32 -4.32 22.64 -5 24 C-6.98 24 -8.96 24 -11 24 C-10.27723542 20.60300649 -9.04584661 17.6021129 -7.625 14.4375 C-7.20476562 13.48746094 -6.78453125 12.53742188 -6.3515625 11.55859375 C-5.09188322 9.17394079 -3.90942389 7.84066347 -2 6 C-0.79950593 2.89992799 -0.79950593 2.89992799 0 0 Z " fill="#585756" transform="translate(119,425)"/>
<path d="M0 0 C1.4540625 0.0309375 1.4540625 0.0309375 2.9375 0.0625 C2.9375 3.0325 2.9375 6.0025 2.9375 9.0625 C6.5675 9.0625 10.1975 9.0625 13.9375 9.0625 C13.916875 7.763125 13.89625 6.46375 13.875 5.125 C13.85350546 3.77084367 13.86601801 2.41493917 13.9375 1.0625 C14.2675 0.7325 14.5975 0.4025 14.9375 0.0625 C16.9175 0.0625 18.8975 0.0625 20.9375 0.0625 C20.9375 7.9825 20.9375 15.9025 20.9375 24.0625 C18.9575 24.0625 16.9775 24.0625 14.9375 24.0625 C14.6075 21.0925 14.2775 18.1225 13.9375 15.0625 C9.9775 14.7325 6.0175 14.4025 1.9375 14.0625 C1.9375 17.3625 1.9375 20.6625 1.9375 24.0625 C-0.0425 24.0625 -2.0225 24.0625 -4.0625 24.0625 C-4.09137236 20.25001574 -4.10925492 16.4375593 -4.125 12.625 C-4.13337891 11.53638672 -4.14175781 10.44777344 -4.15039062 9.32617188 C-4.15361328 8.29169922 -4.15683594 7.25722656 -4.16015625 6.19140625 C-4.16539307 5.23306885 -4.17062988 4.27473145 -4.17602539 3.28735352 C-3.99820174 -0.19760753 -3.56383452 0.07273132 0 0 Z " fill="#434140" transform="translate(598.0625,424.9375)"/>
<path d="M0 0 C3.25 -0.375 3.25 -0.375 7 0 C10.47161121 3.76091215 11.80390073 8.02413204 13.2734375 12.8203125 C14.02762136 15.2541165 14.02762136 15.2541165 15.6875 18.375 C17 21 17 21 17 24 C15.35 24 13.7 24 12 24 C11.80664062 23.35546875 11.61328125 22.7109375 11.4140625 22.046875 C10.11291753 19.65648799 10.11291753 19.65648799 6.9609375 19.390625 C5.18589844 19.32101562 5.18589844 19.32101562 3.375 19.25 C2.18648438 19.19328125 0.99796875 19.1365625 -0.2265625 19.078125 C-1.59941406 19.03945313 -1.59941406 19.03945313 -3 19 C-3.33 20.65 -3.66 22.3 -4 24 C-5.98 24 -7.96 24 -10 24 C-10.20140476 20.37471432 -9.85776765 18.13498292 -8 15 C-7.34 15 -6.68 15 -6 15 C-5.87625 14.21625 -5.7525 13.4325 -5.625 12.625 C-5 10 -5 10 -3 8 C-2.11221308 6.03511169 -2.11221308 6.03511169 -1.375 3.875 C-1.11460937 3.15054687 -0.85421875 2.42609375 -0.5859375 1.6796875 C-0.29589844 0.84824219 -0.29589844 0.84824219 0 0 Z " fill="#545251" transform="translate(327,425)"/>
<path d="M0 0 C1.24007813 0.01289063 2.48015625 0.02578125 3.7578125 0.0390625 C6.875 0.375 6.875 0.375 8.875 2.375 C8.875 3.695 8.875 5.015 8.875 6.375 C4.585 6.045 0.295 5.715 -4.125 5.375 C-3.795 6.365 -3.465 7.355 -3.125 8.375 C-0.64219223 9.29604159 1.85149647 9.83602469 4.4296875 10.43359375 C7.38497367 11.57133172 8.34437697 12.62991541 9.875 15.375 C10.0625 19.125 10.0625 19.125 9.875 22.375 C4.11204082 26.32674344 -2.32874835 26.09780577 -9.125 25.375 C-9.785 24.715 -10.445 24.055 -11.125 23.375 C-10.795 21.725 -10.465 20.075 -10.125 18.375 C-5.835 18.705 -1.545 19.035 2.875 19.375 C2.875 18.385 2.875 17.395 2.875 16.375 C1.98748047 16.35373047 1.98748047 16.35373047 1.08203125 16.33203125 C-3.22444984 16.07209683 -5.60015126 15.74989196 -9.1875 13.1875 C-11.125 10.375 -11.125 10.375 -11.6875 7.3125 C-10.40043966 0.59118487 -6.22954418 -0.14305843 0 0 Z " fill="#666464" transform="translate(453.125,424.625)"/>
<path d="M0 0 C1.051875 -0.00257813 2.10375 -0.00515625 3.1875 -0.0078125 C6 0.125 6 0.125 9 1.125 C8.67 2.775 8.34 4.425 8 6.125 C3.71 5.795 -0.58 5.465 -5 5.125 C-4.67 6.115 -4.34 7.105 -4 8.125 C-1.51719223 9.04604159 0.97649647 9.58602469 3.5546875 10.18359375 C6.4848623 11.31166424 7.42507992 12.44763586 9 15.125 C9.5 17.625 9.5 17.625 9 20.125 C6.26742283 22.88278545 4.65920665 24.03801026 0.7734375 24.55078125 C-0.34804688 24.51339844 -1.46953125 24.47601563 -2.625 24.4375 C-3.75164063 24.41300781 -4.87828125 24.38851563 -6.0390625 24.36328125 C-9 24.125 -9 24.125 -12 23.125 C-11.67 21.805 -11.34 20.485 -11 19.125 C-6.71 19.125 -2.42 19.125 2 19.125 C2 18.135 2 17.145 2 16.125 C1.11248047 16.10373047 1.11248047 16.10373047 0.20703125 16.08203125 C-4.09944984 15.82209683 -6.47515126 15.49989196 -10.0625 12.9375 C-12.34784372 9.62006557 -12.68619702 8.07063286 -12 4.125 C-8.91951288 -0.12900602 -4.904816 -0.01202161 0 0 Z " fill="#62605F" transform="translate(40,424.875)"/>
<path d="M0 0 C1.01964844 0.02449219 2.03929687 0.04898437 3.08984375 0.07421875 C5.8235124 0.29334331 8.39068479 0.70728219 11.0625 1.3125 C10.7325 2.9625 10.4025 4.6125 10.0625 6.3125 C5.7725 5.9825 1.4825 5.6525 -2.9375 5.3125 C-2.6075 6.3025 -2.2775 7.2925 -1.9375 8.3125 C-0.2875 8.6425 1.3625 8.9725 3.0625 9.3125 C3.0625 9.9725 3.0625 10.6325 3.0625 11.3125 C4.2071875 11.4671875 4.2071875 11.4671875 5.375 11.625 C8.30192162 12.37374739 9.37755916 12.82942929 11.0625 15.3125 C11.5625 17.75 11.5625 17.75 11.0625 20.3125 C8.33127928 23.07395563 6.72289861 24.22535297 2.8359375 24.73828125 C1.71445312 24.70089844 0.59296875 24.66351563 -0.5625 24.625 C-1.68914062 24.60050781 -2.81578125 24.57601563 -3.9765625 24.55078125 C-6.9375 24.3125 -6.9375 24.3125 -9.9375 23.3125 C-9.6075 21.6625 -9.2775 20.0125 -8.9375 18.3125 C-7.9475 18.3125 -6.9575 18.3125 -5.9375 18.3125 C-5.9375 18.9725 -5.9375 19.6325 -5.9375 20.3125 C-2.6375 20.3125 0.6625 20.3125 4.0625 20.3125 C4.0625 18.9925 4.0625 17.6725 4.0625 16.3125 C1.0925 15.9825 -1.8775 15.6525 -4.9375 15.3125 C-4.9375 14.6525 -4.9375 13.9925 -4.9375 13.3125 C-5.576875 13.18875 -6.21625 13.065 -6.875 12.9375 C-7.555625 12.73125 -8.23625 12.525 -8.9375 12.3125 C-10.35791821 9.47166359 -10.25202272 7.45772722 -9.9375 4.3125 C-6.94134789 0.35786321 -4.86899323 -0.17805902 0 0 Z " fill="#5E5C5B" transform="translate(298.9375,424.6875)"/>
<path d="M0 0 C2.22549221 4.51663316 2.24945751 8.9349943 2.125 13.875 C2.11597656 14.56335938 2.10695313 15.25171875 2.09765625 15.9609375 C2.07432513 17.64077838 2.03846326 19.32043746 2 21 C1.01 20.67 0.02 20.34 -1 20 C-1.6328125 17.5234375 -1.6328125 17.5234375 -2.125 14.375 C-3.48515906 8.26519459 -5.64503143 5.77444563 -10.74609375 2.3046875 C-11.86177734 1.65886719 -11.86177734 1.65886719 -13 1 C-13.91555664 0.46741577 -13.91555664 0.46741577 -14.84960938 -0.07592773 C-17.32709485 -1.14056017 -18.97672563 -1.18929029 -21.66015625 -1.08984375 C-22.9740332 -1.05987305 -22.9740332 -1.05987305 -24.31445312 -1.02929688 C-26.15052049 -0.96796413 -27.98646511 -0.90284313 -29.82226562 -0.83398438 C-30.69689453 -0.81529297 -31.57152344 -0.79660156 -32.47265625 -0.77734375 C-33.26937744 -0.74890381 -34.06609863 -0.72046387 -34.88696289 -0.69116211 C-37.50801081 -1.07424999 -38.35160655 -1.98720743 -40 -4 C-27.82355166 -6.4473257 -10.54642672 -7.69942868 0 0 Z " fill="#474544" transform="translate(346,179)"/>
<path d="M0 0 C1.98 0 3.96 0 6 0 C6 7.92 6 15.84 6 24 C4.02 24 2.04 24 0 24 C0 20.04 0 16.08 0 12 C-2.42084116 12.94127798 -2.42084116 12.94127798 -3.5 16.5 C-5 20 -5 20 -7 21 C-6.67 19.02 -6.34 17.04 -6 15 C-7.65 15 -9.3 15 -11 15 C-11 14.34 -11 13.68 -11 13 C-10.40960938 12.78601563 -9.81921875 12.57203125 -9.2109375 12.3515625 C-5.46971197 10.06452357 -4.02388706 6.11038894 -1.9765625 2.3359375 C-1.32429688 1.56507813 -0.67203125 0.79421875 0 0 Z " fill="#565554" transform="translate(377,425)"/>
<path d="M0 0 C0.99 0.33 1.98 0.66 3 1 C3.95703125 3.1875 3.95703125 3.1875 4.8125 6 C6.84793108 12.01235026 9.65217177 18.26581082 14.68359375 22.375 C16 24 16 24 16 30 C10.06 29.01 10.06 29.01 4 28 C2.16883655 23.14510868 1.42023966 18.55470828 0.875 13.4375 C0.78863281 12.69564453 0.70226562 11.95378906 0.61328125 11.18945312 C0.19261904 7.44021767 -0.1047769 3.77945244 0 0 Z " fill="#565453" transform="translate(283,254)"/>
<path d="M0 0 C10.4653332 -0.3693647 10.4653332 -0.3693647 12.83203125 1.265625 C14.47816645 3.7100532 14.36514282 6.08485409 14.3984375 8.96484375 C13.85786614 11.72599747 13.03025458 13.04766564 11 15 C7.27101421 15.53965062 3.78628294 15.17817802 0 15 C0 10.05 0 5.1 0 0 Z " fill="#E9E9E9" transform="translate(635,430)"/>
<path d="M0 0 C3.3 0 6.6 0 10 0 C10 0.33 10 0.66 10 1 C8.35 1.33 6.7 1.66 5 2 C4.67 4.31 4.34 6.62 4 9 C6.64 9 9.28 9 12 9 C11.67 9.66 11.34 10.32 11 11 C8.69 11 6.38 11 4 11 C4 13.64 4 16.28 4 19 C5.6254308 18.85904936 7.25034051 18.71207913 8.875 18.5625 C9.77992188 18.48128906 10.68484375 18.40007812 11.6171875 18.31640625 C14.01110861 18.13010715 14.01110861 18.13010715 16 17 C16.65555119 14.47266765 16.65555119 14.47266765 17 12 C19.475 12.495 19.475 12.495 22 13 C22.3125 15.8125 22.3125 15.8125 22 19 C17.64630403 22.79192874 13.12795256 22.35366933 7.6875 22.1875 C4.820625 22.125625 1.95375 22.06375 -1 22 C-0.67 14.74 -0.34 7.48 0 0 Z " fill="#42403F" transform="translate(562,427)"/>
<path d="M0 0 C0.495 0.99 0.495 0.99 1 2 C0.34 2.99 -0.32 3.98 -1 5 C0.32 5.33 1.64 5.66 3 6 C-1.73904705 10.73904705 -8.37927918 11.19587336 -14.80493164 11.34057617 C-17.42466036 11.34010529 -20.04094418 11.32404837 -22.66015625 11.29296875 C-24.05976401 11.28736211 -25.45937773 11.28309707 -26.85899353 11.28010559 C-30.51362838 11.26874061 -34.16789622 11.23934742 -37.8223877 11.20599365 C-41.56318195 11.17511085 -45.30403644 11.16156165 -49.04492188 11.14648438 C-56.36344719 11.11446796 -63.68167185 11.06337521 -71 11 C-71 10.01 -71 9.02 -71 8 C-64.565 7.505 -64.565 7.505 -58 7 C-59.98 7.99 -59.98 7.99 -62 9 C-53.09 9 -44.18 9 -35 9 C-35.99 8.01 -36.98 7.02 -38 6 C-37.38511719 6.15726562 -36.77023437 6.31453125 -36.13671875 6.4765625 C-25.63694657 8.22870381 -12.93804058 9.01587366 -3.64453125 3.2890625 C-1.87524415 1.95543875 -1.87524415 1.95543875 0 0 Z " fill="#888686" transform="translate(414,359)"/>
<path d="M0 0 C8.08573751 -0.60341325 8.08573751 -0.60341325 12.125 2.0625 C14 5 14 5 14 8.625 C13.01382604 11.95333711 12.69520353 13.00997167 10 15 C7.51953125 15.29296875 7.51953125 15.29296875 4.8125 15.1875 C3.224375 15.125625 1.63625 15.06375 0 15 C0 10.05 0 5.1 0 0 Z " fill="#EEEDED" transform="translate(479,430)"/>
<path d="M0 0 C2.31 0 4.62 0 7 0 C7 8.25 7 16.5 7 25 C4.69 25 2.38 25 0 25 C0 16.75 0 8.5 0 0 Z " fill="#646261" transform="translate(58,425)"/>
<path d="M0 0 C1.4540625 0.0309375 1.4540625 0.0309375 2.9375 0.0625 C2.9375 3.0325 2.9375 6.0025 2.9375 9.0625 C6.5675 9.0625 10.1975 9.0625 13.9375 9.0625 C13.916875 7.763125 13.89625 6.46375 13.875 5.125 C13.85350546 3.77084367 13.86601801 2.41493917 13.9375 1.0625 C14.2675 0.7325 14.5975 0.4025 14.9375 0.0625 C16.9175 0.0625 18.8975 0.0625 20.9375 0.0625 C20.9375 7.9825 20.9375 15.9025 20.9375 24.0625 C18.9375 22.0625 18.9375 22.0625 18.71044922 19.99951172 C18.72092285 19.17209473 18.73139648 18.34467773 18.7421875 17.4921875 C18.74863281 16.59628906 18.75507812 15.70039063 18.76171875 14.77734375 C18.77847656 13.84019531 18.79523437 12.90304687 18.8125 11.9375 C18.82152344 10.99261719 18.83054687 10.04773438 18.83984375 9.07421875 C18.86345478 6.73672708 18.89638484 4.39973877 18.9375 2.0625 C17.9475 2.0625 16.9575 2.0625 15.9375 2.0625 C15.9375 4.7025 15.9375 7.3425 15.9375 10.0625 C10.9875 10.0625 6.0375 10.0625 0.9375 10.0625 C0.9375 7.4225 0.9375 4.7825 0.9375 2.0625 C-0.0525 2.0625 -1.0425 2.0625 -2.0625 2.0625 C-2.05202637 2.65788574 -2.04155273 3.25327148 -2.03076172 3.86669922 C-1.98926051 6.55692343 -1.96319296 9.24708037 -1.9375 11.9375 C-1.91236328 13.34322266 -1.91236328 13.34322266 -1.88671875 14.77734375 C-1.88027344 15.67324219 -1.87382813 16.56914062 -1.8671875 17.4921875 C-1.85671387 18.31960449 -1.84624023 19.14702148 -1.83544922 19.99951172 C-2.0625 22.0625 -2.0625 22.0625 -4.0625 24.0625 C-4.09137236 20.25001574 -4.10925492 16.4375593 -4.125 12.625 C-4.13337891 11.53638672 -4.14175781 10.44777344 -4.15039062 9.32617188 C-4.15361328 8.29169922 -4.15683594 7.25722656 -4.16015625 6.19140625 C-4.16539307 5.23306885 -4.17062988 4.27473145 -4.17602539 3.28735352 C-3.99820174 -0.19760753 -3.56383452 0.07273132 0 0 Z " fill="#868585" transform="translate(598.0625,424.9375)"/>
<path d="M0 0 C2.97 0.495 2.97 0.495 6 1 C4.68 1.33 3.36 1.66 2 2 C2.00444122 2.81574997 2.00888245 3.63149994 2.01345825 4.4719696 C2.05356469 12.16694871 2.0839995 19.86187698 2.10362434 27.5569334 C2.1140529 31.51285455 2.1281951 35.46868918 2.15087891 39.42456055 C2.17264046 43.24358277 2.18457561 47.06252188 2.18975449 50.88160133 C2.1934443 52.33722046 2.20064961 53.79283515 2.21146011 55.24841881 C2.22601926 57.29030494 2.22797612 59.33184945 2.22705078 61.3737793 C2.231492 62.53515915 2.23593323 63.696539 2.24050903 64.89311218 C2.00005603 67.99927626 1.32371596 70.19916651 0 73 C-0.99 73 -1.98 73 -3 73 C-2.01 72.01 -2.01 72.01 -1 71 C-0.66679424 67.92356874 -0.66679424 67.92356874 -0.68115234 64.25537109 C-0.67110672 63.56257553 -0.6610611 62.86977997 -0.65071106 62.1559906 C-0.61977447 59.86181482 -0.60281524 57.56775627 -0.5859375 55.2734375 C-0.56723423 53.68444808 -0.54766146 52.09546867 -0.5272522 50.50650024 C-0.47583591 46.32098282 -0.43626123 42.13543317 -0.39910889 37.94976807 C-0.35912857 33.67997197 -0.30800907 29.41031105 -0.2578125 25.140625 C-0.16094085 16.76050887 -0.07657228 8.38032607 0 0 Z " fill="#BDBDBC" transform="translate(360,292)"/>
<path d="M0 0 C3.63 0 7.26 0 11 0 C11 0.33 11 0.66 11 1 C9.02 1.66 7.04 2.32 5 3 C5 4.65 5 6.3 5 8 C7.31 8.33 9.62 8.66 12 9 C11.67 9.66 11.34 10.32 11 11 C7.9375 11.625 7.9375 11.625 5 12 C5 13.98 5 15.96 5 18 C7.97 18.33 10.94 18.66 14 19 C14 19.66 14 20.32 14 21 C9.38 21.33 4.76 21.66 0 22 C0 14.74 0 7.48 0 0 Z " fill="#413F3E" transform="translate(195,427)"/>
<path d="M0 0 C0.84469004 2.33714852 1.21297537 3.50795346 0.20703125 5.83203125 C-3.8836131 11.64143374 -8.26839871 17.18960485 -12.7722168 22.68286133 C-14.98236576 25.39188161 -16.9303137 27.87243864 -18.61328125 30.953125 C-19.29970703 31.96632813 -19.29970703 31.96632813 -20 33 C-21.32 33 -22.64 33 -24 33 C-23.41111199 29.99556926 -22.56711901 28.12462278 -20.63671875 25.7578125 C-20.16169922 25.16613281 -19.68667969 24.57445312 -19.19726562 23.96484375 C-18.69904297 23.35769531 -18.20082031 22.75054687 -17.6875 22.125 C-14.22879176 17.86460442 -11.0386051 13.57763885 -8 9 C-6.35353315 7.31337542 -4.68816933 5.64488294 -3 4 C-1.97186389 2.68824014 -0.95915568 1.3630107 0 0 Z " fill="#383737" transform="translate(307,325)"/>
<path d="M0 0 C0.375 2.0625 0.375 2.0625 0 5 C-1.36557822 6.90313917 -2.87800771 8.57044005 -4.47265625 10.28515625 C-6.18314235 12.0967505 -6.18314235 12.0967505 -7.75 14.9375 C-8.1625 15.618125 -8.575 16.29875 -9 17 C-9.66 17 -10.32 17 -11 17 C-11.3403125 17.804375 -11.3403125 17.804375 -11.6875 18.625 C-13.45570089 21.82460161 -15.53670203 24.29037223 -18 27 C-18.66 27 -19.32 27 -20 27 C-19.12861669 22.63006007 -16.73735479 19.78148596 -14 16.375 C-10.70190162 12.38454204 -10.70190162 12.38454204 -8 8 C-7.34 8 -6.68 8 -6 8 C-5.731875 7.236875 -5.46375 6.47375 -5.1875 5.6875 C-2.6744186 0 -2.6744186 0 0 0 Z " fill="#434343" transform="translate(368,248)"/>
<path d="M0 0 C2.475 0.495 2.475 0.495 5 1 C5.3125 3.8125 5.3125 3.8125 5 7 C0.64570055 10.79245436 -3.86561713 10.35516254 -9.3125 10.1875 C-10.14845703 10.17396484 -10.98441406 10.16042969 -11.84570312 10.14648438 C-13.89741498 10.11131217 -15.94879275 10.05751048 -18 10 C-18 9.67 -18 9.34 -18 9 C-13.62351222 7.31673547 -9.58579397 6.6321495 -4.953125 6.24609375 C-2.92370233 6.10013932 -2.92370233 6.10013932 -1 5 C-0.34444881 2.47266765 -0.34444881 2.47266765 0 0 Z " fill="#494746" transform="translate(579,439)"/>
<path d="M0 0 C3.96 0 7.92 0 12 0 C12.33 1.65 12.66 3.3 13 5 C9.68629 7.20914 8.6553979 7.22481553 4.8125 7.125 C3.91144531 7.10695313 3.01039063 7.08890625 2.08203125 7.0703125 C1.39496094 7.04710937 0.70789063 7.02390625 0 7 C0 4.69 0 2.38 0 0 Z " fill="#9F9E9D" transform="translate(566,439)"/>
<path d="M0 0 C1.41152344 -0.01836914 1.41152344 -0.01836914 2.8515625 -0.03710938 C3.7590625 -0.03904297 4.6665625 -0.04097656 5.6015625 -0.04296875 C6.42221191 -0.04707764 7.24286133 -0.05118652 8.08837891 -0.05541992 C10.58662617 0.20998217 12.21501145 0.93644207 14.375 2.1875 C12.395 2.1875 10.415 2.1875 8.375 2.1875 C8.375 2.8475 8.375 3.5075 8.375 4.1875 C9.014375 4.31125 9.65375 4.435 10.3125 4.5625 C11.3334375 4.871875 11.3334375 4.871875 12.375 5.1875 C12.705 5.8475 13.035 6.5075 13.375 7.1875 C7.5 5.3125 7.5 5.3125 6.375 4.1875 C4.9201421 4.13707489 3.46289341 4.15179552 2.0078125 4.1953125 C1.12222656 4.21207031 0.23664063 4.22882813 -0.67578125 4.24609375 C-2.55098619 4.29018571 -4.42602233 4.34220504 -6.30078125 4.40234375 C-7.18894531 4.41652344 -8.07710938 4.43070313 -8.9921875 4.4453125 C-10.21591064 4.47842529 -10.21591064 4.47842529 -11.46435547 4.51220703 C-14.11237666 4.11425582 -14.96171768 3.2265137 -16.625 1.1875 C-11.07432709 0.02724228 -5.64329293 0.0038973 0 0 Z " fill="#6F6E6D" transform="translate(322.625,173.8125)"/>
<path d="M0 0 C-0.25 2.3125 -0.25 2.3125 -1 5 C-2.31787285 6.02028865 -3.65210653 7.01971384 -5 8 C-5.69040574 9.65697379 -6.3530635 11.3255761 -7 13 C-8.57780131 15.40927755 -10.2778486 17.68869154 -12 20 C-12.66 19.67 -13.32 19.34 -14 19 C-12.68 16.69 -11.36 14.38 -10 12 C-10.99 12.33 -11.98 12.66 -13 13 C-11.52084083 9.80735941 -9.73235615 7.06594316 -7.625 4.25 C-7.03976562 3.45078125 -6.45453125 2.6515625 -5.8515625 1.828125 C-4 0 -4 0 0 0 Z " fill="#191919" transform="translate(406,202)"/>
<path d="M0 0 C6.0546875 -0.1953125 6.0546875 -0.1953125 8 0 C8.66 0.66 9.32 1.32 10 2 C9.44444444 6.55555556 9.44444444 6.55555556 8 8 C5.32941149 8.14115161 2.67567762 8.04247107 0 8 C0 5.36 0 2.72 0 0 Z " fill="#EFEEEE" transform="translate(264,430)"/>
<path d="M0 0 C0.33 0.66 0.66 1.32 1 2 C0.67 2.66 0.34 3.32 0 4 C-0.66 4 -1.32 4 -2 4 C-2.66 5.65 -3.32 7.3 -4 9 C-4.66 9 -5.32 9 -6 9 C-6 9.66 -6 10.32 -6 11 C-6.66 11 -7.32 11 -8 11 C-8.433125 12.2065625 -8.433125 12.2065625 -8.875 13.4375 C-10 16 -10 16 -12 17 C-12 16.01 -12 15.02 -12 14 C-12.99 14.495 -12.99 14.495 -14 15 C-12.46712115 11.76056637 -10.67413138 8.79464955 -8.6875 5.8125 C-8.11386719 4.93207031 -7.54023438 4.05164063 -6.94921875 3.14453125 C-4.66448534 0.63086664 -3.32597866 0.29195338 0 0 Z " fill="#717171" transform="translate(351,273)"/>
<path d="M0 0 C0.33 0.66 0.66 1.32 1 2 C-3.69576257 8.63505153 -8.50374569 15.00564764 -14 21 C-14.66 20.67 -15.32 20.34 -16 20 C-15.34 19.34 -14.68 18.68 -14 18 C-13.72027344 17.25105469 -13.44054687 16.50210937 -13.15234375 15.73046875 C-11.75319035 12.41518663 -9.85930841 10.07696727 -7.5625 7.3125 C-6.38880859 5.88357422 -6.38880859 5.88357422 -5.19140625 4.42578125 C-3 2 -3 2 0 0 Z " fill="#323131" transform="translate(339,286)"/>
<path d="M0 0 C3.375 -0.125 3.375 -0.125 7 0 C9 2 9 2 9.1875 4.5625 C9 7 9 7 8 8 C5.32941149 8.14115161 2.67567762 8.04247107 0 8 C0 5.36 0 2.72 0 0 Z " fill="#EFEFEF" transform="translate(152,430)"/>
<path d="M0 0 C1.65 0 3.3 0 5 0 C5 3.3 5 6.6 5 10 C4.67 10 4.34 10 4 10 C4 7.36 4 4.72 4 2 C3.01 2 2.02 2 1 2 C1.01047363 2.59538574 1.02094727 3.19077148 1.03173828 3.80419922 C1.07323949 6.49442343 1.09930704 9.18458037 1.125 11.875 C1.15013672 13.28072266 1.15013672 13.28072266 1.17578125 14.71484375 C1.18222656 15.61074219 1.18867187 16.50664062 1.1953125 17.4296875 C1.20578613 18.25710449 1.21625977 19.08452148 1.22705078 19.93701172 C1 22 1 22 -1 24 C-1.02887236 20.18751574 -1.04675492 16.3750593 -1.0625 12.5625 C-1.07087891 11.47388672 -1.07925781 10.38527344 -1.08789062 9.26367188 C-1.09111328 8.22919922 -1.09433594 7.19472656 -1.09765625 6.12890625 C-1.10289307 5.17056885 -1.10812988 4.21223145 -1.11352539 3.22485352 C-1 1 -1 1 0 0 Z " fill="#676564" transform="translate(595,425)"/>
<path d="M0 0 C-1.15631946 7.2269966 -5.4086197 11.80646478 -11 16 C-10.78414812 9.84822149 -9.65886817 6.86300523 -5.47265625 2.34765625 C-3.6114366 0.64441811 -2.54549656 0 0 0 Z " fill="#474747" transform="translate(396,214)"/>
<path d="M0 0 C3.3 0 6.6 0 10 0 C10.33 1.32 10.66 2.64 11 4 C10 5 10 5 7.71484375 5.09765625 C6.34005859 5.08025391 6.34005859 5.08025391 4.9375 5.0625 C4.01839844 5.05347656 3.09929688 5.04445313 2.15234375 5.03515625 C1.44207031 5.02355469 0.73179687 5.01195312 0 5 C0 3.35 0 1.7 0 0 Z " fill="#E4E4E4" transform="translate(566,430)"/>
<path d="M0 0 C0 5.7823223 -1.29260449 9.44519981 -5 14 C-6.32 14 -7.64 14 -9 14 C-8.41827275 10.0479482 -6.44842259 7.77904947 -3.9375 4.75 C-3.20402344 3.85796875 -2.47054688 2.9659375 -1.71484375 2.046875 C-1.14894531 1.37140625 -0.58304687 0.6959375 0 0 Z " fill="#4F4F4E" transform="translate(292,344)"/>
<path d="M0 0 C3.96 0.33 7.92 0.66 12 1 C11.67 1.66 11.34 2.32 11 3 C12.32 3.66 13.64 4.32 15 5 C12.89590361 5.02701408 10.79170822 5.04640223 8.6875 5.0625 C7.51574219 5.07410156 6.34398437 5.08570313 5.13671875 5.09765625 C2 5 2 5 -1 4 C-0.67 2.68 -0.34 1.36 0 0 Z " fill="#5B5A59" transform="translate(29,444)"/>
<path d="M0 0 C5.28 0 10.56 0 16 0 C14.02 0.99 14.02 0.99 12 2 C14.64 2.33 17.28 2.66 20 3 C20 3.33 20 3.66 20 4 C13.4 4 6.8 4 0 4 C0 2.68 0 1.36 0 0 Z " fill="#716F6F" transform="translate(372,308)"/>
<path d="M0 0 C0 3 0 3 -1 6 C-1.12271523 8.61697371 -1.18512754 11.19567761 -1.1875 13.8125 C-1.19974609 14.51181641 -1.21199219 15.21113281 -1.22460938 15.93164062 C-1.23699659 20.34561655 -0.62789183 23.90131584 1 28 C-2.14808709 25.90127527 -2.76382585 24.96642348 -3.64453125 21.3984375 C-5.70833182 7.47345341 -5.70833182 7.47345341 -1.9765625 2.0703125 C-1.32429688 1.38710937 -0.67203125 0.70390625 0 0 Z " fill="#B9B9B8" transform="translate(301,183)"/>
<path d="M0 0 C3.3 0 6.6 0 10 0 C9.67 1.65 9.34 3.3 9 5 C6.36 5 3.72 5 1 5 C0.67 3.35 0.34 1.7 0 0 Z " fill="#E9E9E8" transform="translate(200,430)"/>
<path d="M0 0 C3.63 0 7.26 0 11 0 C11 1.32 11 2.64 11 4 C7.37 4 3.74 4 0 4 C0 2.68 0 1.36 0 0 Z " fill="#F6F6F6" transform="translate(200,440)"/>
<path d="M0 0 C0.33 0.66 0.66 1.32 1 2 C0.01 3.485 0.01 3.485 -1 5 C0.32 5.33 1.64 5.66 3 6 C0.6870518 8.3129482 -0.47904875 8.49580975 -3.625 9.125 C-4.44226563 9.29257812 -5.25953125 9.46015625 -6.1015625 9.6328125 C-7.04128906 9.81457031 -7.04128906 9.81457031 -8 10 C-8 9.34 -8 8.68 -8 8 C-7.01 8 -6.02 8 -5 8 C-5 7.34 -5 6.68 -5 6 C-6.65 6.33 -8.3 6.66 -10 7 C-8.39161707 3.78323414 -5.21406721 3.35329146 -2 2 C-1.34 1.34 -0.68 0.68 0 0 Z " fill="#838281" transform="translate(414,359)"/>
<path d="M0 0 C0 0.99 0 1.98 0 3 C0.66 3 1.32 3 2 3 C1 6 1 6 -1 7 C-1.309375 7.825 -1.61875 8.65 -1.9375 9.5 C-2.4634375 10.7375 -2.4634375 10.7375 -3 12 C-6 13 -6 13 -9 13 C-7.50923566 9.7173068 -5.61379679 7.06922559 -3.375 4.25 C-2.74335938 3.45078125 -2.11171875 2.6515625 -1.4609375 1.828125 C-0.97882813 1.22484375 -0.49671875 0.6215625 0 0 Z " fill="#585858" transform="translate(325,302)"/>
<path d="M0 0 C1.32 0.33 2.64 0.66 4 1 C4.33 3.31 4.66 5.62 5 8 C2.69 8 0.38 8 -2 8 C-1.47731534 5.23723823 -0.89130413 2.6739124 0 0 Z " fill="#D1D1D1" transform="translate(121,432)"/>
<path d="M0 0 C0.99 0.33 1.98 0.66 3 1 C4.02734375 3.29296875 4.02734375 3.29296875 4.9375 6.1875 C6.46508068 10.7171601 8.12506141 14.200974 11 18 C10.67 18.66 10.34 19.32 10 20 C7.59424393 17.81482901 6.20464419 15.74080329 4.8125 12.8125 C4.29623047 11.73935547 4.29623047 11.73935547 3.76953125 10.64453125 C3.51558594 10.10183594 3.26164062 9.55914062 3 9 C2.01 9.495 2.01 9.495 1 10 C0.67 6.7 0.34 3.4 0 0 Z " fill="#828180" transform="translate(283,254)"/>
<path d="M0 0 C2.32749345 3.49124017 2.50299316 4.89222251 2 9 C0 11.375 0 11.375 -2 13 C-1.67 11.02 -1.34 9.04 -1 7 C-2.65 7 -4.3 7 -6 7 C-6 6.34 -6 5.68 -6 5 C-5.38125 4.731875 -4.7625 4.46375 -4.125 4.1875 C-1.7004767 3.04443152 -1.7004767 3.04443152 0 0 Z " fill="#757473" transform="translate(372,433)"/>
<path d="M0 0 C3.3 0 6.6 0 10 0 C10 1.32 10 2.64 10 4 C6.7 4 3.4 4 0 4 C0 2.68 0 1.36 0 0 Z " fill="#FCFCFC" transform="translate(567,440)"/>
<path d="M0 0 C0 0.66 0 1.32 0 2 C5.94 2 11.88 2 18 2 C18 2.33 18 2.66 18 3 C7.44 3 -3.12 3 -14 3 C-14 2.67 -14 2.34 -14 2 C-12.04200486 1.66468585 -10.08359226 1.33180857 -8.125 1 C-6.48917969 0.7215625 -6.48917969 0.7215625 -4.8203125 0.4375 C-2 0 -2 0 0 0 Z " fill="#585655" transform="translate(358,366)"/>
<path d="M0 0 C3 0 3 0 4.38671875 1.3125 C5.59114583 2.875 6.79557292 4.4375 8 6 C7.67 6.66 7.34 7.32 7 8 C5.68 6.68 4.36 5.36 3 4 C2.67 6.97 2.34 9.94 2 13 C1.34 13 0.68 13 0 13 C0 8.71 0 4.42 0 0 Z " fill="#C5C4C4" transform="translate(515,436)"/>
<path d="M0 0 C0.66 0.33 1.32 0.66 2 1 C0.90453883 2.48562542 -0.20168823 3.96331709 -1.3125 5.4375 C-1.92738281 6.26121094 -2.54226563 7.08492188 -3.17578125 7.93359375 C-5 10 -5 10 -8 11 C-7.42429187 7.11397015 -5.58424279 4.88827136 -3 2 C-2.01 1.34 -1.02 0.68 0 0 Z " fill="#343333" transform="translate(356,264)"/>
<path d="M0 0 C0.33 0 0.66 0 1 0 C2.05619003 4.28297531 2.11702092 8.42985646 2.0625 12.8125 C2.05798828 13.50537109 2.05347656 14.19824219 2.04882812 14.91210938 C2.03713156 16.60811068 2.01919924 18.30406703 2 20 C1.01 19.67 0.02 19.34 -1 19 C-1.33 17.02 -1.66 15.04 -2 13 C-1.01 13.495 -1.01 13.495 0 14 C0 9.38 0 4.76 0 0 Z " fill="#8C8B8A" transform="translate(346,180)"/>
<path d="M0 0 C0.66 0.33 1.32 0.66 2 1 C1.67 1.33 1.34 1.66 1 2 C1.66 2.66 2.32 3.32 3 4 C2.01 4 1.02 4 0 4 C0.33 4.66 0.66 5.32 1 6 C3.57951874 6.69093896 3.57951874 6.69093896 6.5625 7.125 C7.57441406 7.29257812 8.58632813 7.46015625 9.62890625 7.6328125 C10.80259766 7.81457031 10.80259766 7.81457031 12 8 C8.73086376 9.03115279 6.13958652 8.9638984 2.75 8.5625 C1.41195313 8.40974609 1.41195313 8.40974609 0.046875 8.25390625 C-0.62859375 8.17011719 -1.3040625 8.08632813 -2 8 C-2 6.68 -2 5.36 -2 4 C-2.66 3.67 -3.32 3.34 -4 3 C-2.68 2.01 -1.36 1.02 0 0 Z " fill="#737271" transform="translate(401,302)"/>
<path d="M0 0 C0 3 0 3 -1 6 C-0.01 5.67 0.98 5.34 2 5 C0.34832443 8.5786304 -1.78286492 11.74820188 -4 15 C-4.66 14.67 -5.32 14.34 -6 14 C-4.68 11.69 -3.36 9.38 -2 7 C-2.99 7.33 -3.98 7.66 -5 8 C-3.62845496 5.04590299 -2.01136276 2.55991624 0 0 Z " fill="#828181" transform="translate(398,207)"/>
<path d="M0 0 C-6 4 -6 4 -12 8 C-12.33 6.35 -12.66 4.7 -13 3 C-8.37802694 0.78145293 -5.23175837 -0.38281159 0 0 Z " fill="#646362" transform="translate(312,176)"/>
<path d="M0 0 C0.66 0 1.32 0 2 0 C3.4606285 2.64738916 4 3.89448334 4 7 C1.69 7 -0.62 7 -3 7 C-3 6.01 -3 5.02 -3 4 C-2.34 4 -1.68 4 -1 4 C-0.67 2.68 -0.34 1.36 0 0 Z " fill="#DDDDDD" transform="translate(330,433)"/>
<path d="M0 0 C0.99 0.33 1.98 0.66 3 1 C3 1.99 3 2.98 3 4 C3.66 4 4.32 4 5 4 C5 4.99 5 5.98 5 7 C2.69 7 0.38 7 -2 7 C-1.125 2.25 -1.125 2.25 0 0 Z " fill="#DEDDDD" transform="translate(404,433)"/>
<path d="M0 0 C0.99 0 1.98 0 3 0 C2.49477778 4.37859255 -0.17827222 6.81651224 -3 10 C-3.66 9.34 -4.32 8.68 -5 8 C-2.25 2.25 -2.25 2.25 0 0 Z " fill="#2D2C2C" transform="translate(296,339)"/>
<path d="M0 0 C1.60379341 -0.05416188 3.20811406 -0.09286638 4.8125 -0.125 C5.70582031 -0.14820313 6.59914063 -0.17140625 7.51953125 -0.1953125 C10 0 10 0 13 2 C13 2.66 13 3.32 13 4 C7.76824163 4.38281159 4.62197306 3.21854707 0 1 C0 0.67 0 0.34 0 0 Z " fill="#B2B1B1" transform="translate(293,283)"/>
<path d="M0 0 C1.74690919 0.2143934 3.4974023 0.40107653 5.25 0.5625 C6.14203125 0.64628906 7.0340625 0.73007813 7.953125 0.81640625 C8.62859375 0.87699219 9.3040625 0.93757812 10 1 C10 1.33 10 1.66 10 2 C7.22965863 2.24858198 4.46060931 2.47452879 1.6875 2.6875 C0.50897461 2.79674805 0.50897461 2.79674805 -0.69335938 2.90820312 C-1.45068359 2.96298828 -2.20800781 3.01777344 -2.98828125 3.07421875 C-3.68477783 3.13182373 -4.38127441 3.18942871 -5.09887695 3.2487793 C-7.59309425 2.92238821 -8.4211918 1.8898183 -10 0 C-6.20778089 -0.77568118 -3.69661755 -0.97851641 0 0 Z " fill="#9C9A9A" transform="translate(316,175)"/>
<path d="M0 0 C1.55945072 3.11890143 0.64552918 5.65498518 0 9 C-0.99 10.485 -0.99 10.485 -2 12 C-2.66 11.67 -3.32 11.34 -4 11 C-3.34 9.68 -2.68 8.36 -2 7 C-3.98 7.99 -3.98 7.99 -6 9 C-4.47291037 5.56404834 -2.40072955 2.88087546 0 0 Z " fill="#616060" transform="translate(385,224)"/>
<path d="M0 0 C0 3.58415146 -0.78891784 4.41203739 -2.9375 7.1875 C-3.48277344 7.90292969 -4.02804687 8.61835938 -4.58984375 9.35546875 C-5.05519531 9.89816406 -5.52054687 10.44085938 -6 11 C-6.33 11 -6.66 11 -7 11 C-7.4375 8.875 -7.4375 8.875 -7 6 C-4.87310854 3.723853 -2.4976567 1.8541278 0 0 Z " fill="#2C2C2C" transform="translate(375,240)"/>
<path d="M0 0 C1.23556641 0.01740234 1.23556641 0.01740234 2.49609375 0.03515625 C3.32238281 0.04417969 4.14867187 0.05320312 5 0.0625 C5.63808594 0.07410156 6.27617187 0.08570313 6.93359375 0.09765625 C6.93359375 0.75765625 6.93359375 1.41765625 6.93359375 2.09765625 C2.31359375 2.42765625 -2.30640625 2.75765625 -7.06640625 3.09765625 C-5.74640625 2.43765625 -4.42640625 1.77765625 -3.06640625 1.09765625 C-2.06640625 0.09765625 -2.06640625 0.09765625 0 0 Z " fill="#474544" transform="translate(202.06640625,445.90234375)"/>
<path d="M0 0 C0 0.66 0 1.32 0 2 C-0.99 2 -1.98 2 -3 2 C-3 2.66 -3 3.32 -3 4 C-5.875 4.125 -5.875 4.125 -9 4 C-9.66 3.34 -10.32 2.68 -11 2 C-3.375 0 -3.375 0 0 0 Z " fill="#514F4E" transform="translate(409,365)"/>
<path d="M0 0 C0.33 0.99 0.66 1.98 1 3 C0.00390625 4.82421875 0.00390625 4.82421875 -1.4375 6.6875 C-1.91058594 7.31011719 -2.38367188 7.93273437 -2.87109375 8.57421875 C-3.24363281 9.04472656 -3.61617188 9.51523438 -4 10 C-4.65234375 8.203125 -4.65234375 8.203125 -5 6 C-3.63510623 3.66629928 -1.8580962 1.99405446 0 0 Z " fill="#1B1A1A" transform="translate(390,220)"/>
<path d="M0 0 C2.97 0.495 2.97 0.495 6 1 C6 4.96 6 8.92 6 13 C5.67 13 5.34 13 5 13 C4.95101563 12.36191406 4.90203125 11.72382813 4.8515625 11.06640625 C4.77679688 10.24011719 4.70203125 9.41382813 4.625 8.5625 C4.52058594 7.32693359 4.52058594 7.32693359 4.4140625 6.06640625 C4.27742188 5.38449219 4.14078125 4.70257813 4 4 C3.34 3.67 2.68 3.34 2 3 C2 2.34 2 1.68 2 1 C1.34 0.67 0.68 0.34 0 0 Z " fill="#8E8D8C" transform="translate(366,295)"/>
<path d="M0 0 C0.33 0.66 0.66 1.32 1 2 C-0.98 4.97 -0.98 4.97 -3 8 C-3.99 7.67 -4.98 7.34 -6 7 C-4.60667426 3.63279613 -3.0210714 2.0140476 0 0 Z " fill="#383838" transform="translate(339,286)"/>
<path d="M0 0 C0.33 1.32 0.66 2.64 1 4 C-0.9375 6.75 -0.9375 6.75 -3 9 C-3.66 8.34 -4.32 7.68 -5 7 C-3.35 4.69 -1.7 2.38 0 0 Z " fill="#454545" transform="translate(307,325)"/>
<path d="M0 0 C0.66 0.33 1.32 0.66 2 1 C-3.14285714 7.57142857 -3.14285714 7.57142857 -7 9 C-5.44499019 5.18315774 -2.96404505 2.80804268 0 0 Z " fill="#7B7A79" transform="translate(297,180)"/>
<path d="M0 0 C4.75 0.75 4.75 0.75 7 3 C3.94736336 3.98120464 2.05263664 3.98120464 -1 3 C-0.67 2.01 -0.34 1.02 0 0 Z " fill="#484645" transform="translate(29,444)"/>
<path d="M0 0 C1 2 1 2 0.3125 4.875 C-1.03712351 8.08838932 -2.39272995 9.74036595 -5 12 C-4.42415568 9.61435923 -3.77772405 7.33317216 -3 5 C-2.34 5 -1.68 5 -1 5 C-0.67 3.35 -0.34 1.7 0 0 Z " fill="#8B8989" transform="translate(322,435)"/>
<path d="M0 0 C0.33 0.99 0.66 1.98 1 3 C-0.8125 5 -0.8125 5 -3 7 C-3.99 7 -4.98 7 -6 7 C-4.60667426 3.63279613 -3.0210714 2.0140476 0 0 Z " fill="#3D3C3C" transform="translate(318,313)"/>
<path d="M0 0 C1.32 0 2.64 0 4 0 C3.625 2.4375 3.625 2.4375 3 5 C2.01 5.495 2.01 5.495 1 6 C1.33 4.68 1.66 3.36 2 2 C1.01 2.99 0.02 3.98 -1 5 C-1.66 4.67 -2.32 4.34 -3 4 C-1.75 2 -1.75 2 0 0 Z " fill="#605F5F" transform="translate(402,202)"/>
<path d="M0 0 C0 2.64 0 5.28 0 8 C-4 3.25 -4 3.25 -4 1 C-2 0 -2 0 0 0 Z " fill="#565554" transform="translate(347,188)"/>
<path d="M0 0 C0.99 0 1.98 0 3 0 C1.52307692 4.67692308 1.52307692 4.67692308 -1.125 6.3125 C-2.053125 6.6528125 -2.053125 6.6528125 -3 7 C-2.01 4.69 -1.02 2.38 0 0 Z " fill="#292928" transform="translate(345,276)"/>
<path d="M0 0 C0 0.66 0 1.32 0 2 C-1.53125 3.2890625 -1.53125 3.2890625 -3.5 4.625 C-4.1496875 5.07101563 -4.799375 5.51703125 -5.46875 5.9765625 C-5.9740625 6.31429687 -6.479375 6.65203125 -7 7 C-6.2421875 3.21875 -6.2421875 3.21875 -4.0625 1.25 C-2 0 -2 0 0 0 Z " fill="#D8D8D7" transform="translate(309,178)"/>
</svg>
